<svg width="34" height="30" viewBox="0 0 34 30" fill="none" xmlns="http://www.w3.org/2000/svg">
<path d="M16.6667 6.66667V0H0V30H33.3333V6.66667H16.6667ZM6.66667 26.6667H3.33333V23.3333H6.66667V26.6667ZM6.66667 20H3.33333V16.6667H6.66667V20ZM6.66667 13.3333H3.33333V10H6.66667V13.3333ZM6.66667 6.66667H3.33333V3.33333H6.66667V6.66667ZM13.3333 26.6667H10V23.3333H13.3333V26.6667ZM13.3333 20H10V16.6667H13.3333V20ZM13.3333 13.3333H10V10H13.3333V13.3333ZM13.3333 6.66667H10V3.33333H13.3333V6.66667ZM30 26.6667H16.6667V23.3333H20V20H16.6667V16.6667H20V13.3333H16.6667V10H30V26.6667ZM26.6667 13.3333H23.3333V16.6667H26.6667V13.3333ZM26.6667 20H23.3333V23.3333H26.6667V20Z" fill="#D9D9D9"/>
</svg>
