<svg width="33" height="33" viewBox="0 0 33 33" fill="none" xmlns="http://www.w3.org/2000/svg">
<path d="M20.125 32.6264C19.625 32.7375 19.1878 32.6331 18.8133 32.3131C18.4378 31.9942 18.25 31.557 18.25 31.0014C18.25 30.6125 18.3822 30.2586 18.6467 29.9397C18.91 29.6197 19.2361 29.4042 19.625 29.2931C20.3194 29.1264 20.9933 28.9108 21.6467 28.6464C22.2989 28.3831 22.9306 28.057 23.5417 27.6681C23.9028 27.4458 24.2989 27.3558 24.73 27.3981C25.16 27.4392 25.5139 27.5986 25.7917 27.8764C26.1806 28.2653 26.3544 28.7097 26.3133 29.2097C26.2711 29.7097 26.0278 30.0986 25.5833 30.3764C24.7222 30.932 23.8406 31.3903 22.9383 31.7514C22.035 32.1125 21.0972 32.4042 20.125 32.6264ZM28.1667 25.5014C27.8889 25.2236 27.7289 24.8764 27.6867 24.4597C27.6456 24.0431 27.7361 23.6681 27.9583 23.3347C28.3194 22.7236 28.6389 22.0986 28.9167 21.4597C29.1944 20.8208 29.4167 20.1403 29.5833 19.4181C29.6944 19.0292 29.9167 18.6958 30.25 18.4181C30.5833 18.1403 30.9444 18.0014 31.3333 18.0014C31.8889 18.0014 32.3267 18.1958 32.6467 18.5847C32.9656 18.9736 33.0556 19.4181 32.9167 19.9181C32.6944 20.9181 32.3956 21.8697 32.02 22.7731C31.6456 23.6753 31.1806 24.5292 30.625 25.3347C30.3472 25.7514 29.9656 25.9803 29.48 26.0214C28.9933 26.0636 28.5556 25.8903 28.1667 25.5014ZM31.2917 14.6681C30.9028 14.6681 30.5489 14.5292 30.23 14.2514C29.91 13.9736 29.6944 13.6403 29.5833 13.2514C29.4167 12.5292 29.1944 11.8414 28.9167 11.1881C28.6389 10.5358 28.3194 9.91807 27.9583 9.33473C27.7361 9.0014 27.6456 8.6264 27.6867 8.20973C27.7289 7.79307 27.8889 7.44584 28.1667 7.16807C28.5556 6.77918 28.9933 6.59862 29.48 6.6264C29.9656 6.65418 30.3472 6.8764 30.625 7.29307C31.1806 8.09862 31.6528 8.9664 32.0417 9.8964C32.4306 10.8275 32.7361 11.7792 32.9583 12.7514C33.0694 13.2514 32.9583 13.6958 32.625 14.0847C32.2917 14.4736 31.8472 14.6681 31.2917 14.6681ZM13.0833 32.5847C9.27778 31.6958 6.14556 29.7514 3.68667 26.7514C1.22889 23.7514 0 20.2792 0 16.3347C0 12.3625 1.22222 8.86251 3.66667 5.83473C6.11111 2.80695 9.23611 0.8764 13.0417 0.0430663C13.5417 -0.0680448 13.9794 0.0358441 14.355 0.354733C14.7294 0.674733 14.9167 1.09862 14.9167 1.6264C14.9167 2.01529 14.7844 2.36918 14.52 2.68807C14.2567 3.00807 13.9306 3.22362 13.5417 3.33473C10.5694 4.05695 8.125 5.6264 6.20833 8.04307C4.29167 10.4597 3.33333 13.2236 3.33333 16.3347C3.33333 19.4458 4.29167 22.1892 6.20833 24.5647C8.125 26.9392 10.5694 28.5153 13.5417 29.2931C13.9306 29.4042 14.2567 29.6264 14.52 29.9597C14.7844 30.2931 14.9167 30.6542 14.9167 31.0431C14.9167 31.5708 14.7361 31.9875 14.375 32.2931C14.0139 32.5986 13.5833 32.6958 13.0833 32.5847ZM23.6667 5.04307C23.0278 4.65418 22.375 4.31362 21.7083 4.0214C21.0417 3.73029 20.3611 3.5014 19.6667 3.33473C19.2778 3.22362 18.9444 3.00807 18.6667 2.68807C18.3889 2.36918 18.25 2.01529 18.25 1.6264C18.25 1.09862 18.4378 0.674733 18.8133 0.354733C19.1878 0.0358441 19.625 -0.0680448 20.125 0.0430663C21.0972 0.265289 22.0417 0.556955 22.9583 0.918067C23.875 1.27918 24.7639 1.73751 25.625 2.29307C26.0694 2.57084 26.3128 2.95973 26.355 3.45973C26.3961 3.95973 26.2222 4.40418 25.8333 4.79307C25.5556 5.07084 25.2156 5.23751 24.8133 5.29307C24.41 5.34862 24.0278 5.26529 23.6667 5.04307ZM16.625 24.0847C16.4028 24.0847 16.1944 24.0497 16 23.9797C15.8056 23.9108 15.625 23.807 15.4583 23.6681C13.625 21.9736 12.25 20.3903 11.3333 18.9181C10.4167 17.4458 9.95833 16.0847 9.95833 14.8347C9.95833 12.7514 10.6322 11.092 11.98 9.8564C13.3267 8.61973 14.875 8.0014 16.625 8.0014C18.375 8.0014 19.9239 8.61973 21.2717 9.8564C22.6183 11.092 23.2917 12.7514 23.2917 14.8347C23.2917 16.0847 22.8333 17.4458 21.9167 18.9181C21 20.3903 19.625 21.9736 17.7917 23.6681C17.625 23.807 17.4444 23.9108 17.25 23.9797C17.0556 24.0497 16.8472 24.0847 16.625 24.0847ZM16.625 16.3347C17.125 16.3347 17.5489 16.1614 17.8967 15.8147C18.2433 15.467 18.4167 15.0431 18.4167 14.5431C18.4167 14.0708 18.2433 13.6542 17.8967 13.2931C17.5489 12.932 17.125 12.7514 16.625 12.7514C16.125 12.7514 15.7011 12.932 15.3533 13.2931C15.0067 13.6542 14.8333 14.0708 14.8333 14.5431C14.8333 15.0431 15.0067 15.467 15.3533 15.8147C15.7011 16.1614 16.125 16.3347 16.625 16.3347Z" fill="#FDB623"/>
</svg>
